<?xml version="1.0" encoding="UTF-8"?>
<svg id="Layer_1" data-name="Layer 1" xmlns="http://www.w3.org/2000/svg" viewBox="0 0 853.78 710.64">
  <defs>
    <style>
      .cls-1 {
        fill: #ec6b1f;
      }

      .cls-2 {
        fill: #462718;
      }

      .cls-3 {
        fill: #f28e1c;
      }
    </style>
  </defs>
  <g>
    <polygon class="cls-1" points="545.3 202.33 834.01 293.5 793.39 549.09 509.77 592.93 406 371.03 545.3 202.33"/>
    <polygon class="cls-2" points="423.12 77.1 0 214.85 200.12 555.42 496.3 444.18 423.12 77.1"/>
    <path class="cls-3" d="M329.65,667.66c-4.57,1.02-232.78-418.21-232.78-418.21L760.32,78.87l-8.3,417.46-422.36,171.32Z"/>
    <polygon class="cls-3" points="696.77 58.54 800.71 32.26 789.96 169.64 838.94 0 696.77 58.54"/>
    <polygon class="cls-3" points="821.53 122.97 801.22 189.87 853.78 170.76 821.53 122.97"/>
    <polygon class="cls-2" points="292.82 94.03 207.07 125.36 148.01 111.5 292.82 94.03"/>
    <polygon class="cls-3" points="111.64 118.08 179.14 132.12 117.11 161.02 111.64 118.08"/>
    <polygon class="cls-1" points="515.57 615.51 624.2 600.67 537.34 649.06 515.57 615.51"/>
    <polygon class="cls-1" points="594.39 649.86 651.14 601.28 651.39 634.55 594.39 649.86"/>
    <polygon class="cls-2" points="148.17 514.6 186.94 584.5 281.5 559.66 171.53 600.92 148.17 514.6"/>
    <polyline class="cls-1" points="332.05 689.38 490.26 640.04 373.73 710.64"/>
    <polygon class="cls-3" points="500.47 641.75 469.85 674.07 497.06 665.56 500.47 641.75"/>
  </g>
  <g>
    <path class="cls-2" d="M485.57,198.87s-13.46-7.78-26.08-5.34c-12,17.71-8,49.8-8,49.8,0,0,5.34-2.96,7.41-2.67,2.96-23.42,26.68-41.79,26.68-41.79Z"/>
    <path class="cls-2" d="M501.06,207.03c-20.34,6.63-36.85,34.43-36.85,34.43,0,0,6.03.93,7.49,2.44,16.7-16.68,46.7-16.66,46.7-16.66,0,0-5.87-14.4-17.33-20.21Z"/>
    <path class="cls-2" d="M479.17,246.85s4.79,3.78,5.32,5.81c22.75-6.29,48.85,8.5,48.85,8.5,0,0,1.98-15.42-5.14-26.12-20.96-4.25-49.03,11.82-49.03,11.82Z"/>
    <path class="cls-2" d="M604.08,526.88c2.33-1-44.35-142.73-77.37-170.74,29.01,3,62.03,2.33,62.03,2.33l-16.34-81.04,3.33,69.03s-68.36-13.34-87.04-15.67c-4-3.06-8.93-10.57-11.49-14.73,12.99-20.66,20.56-44.34,6.69-56.54-24.23-21.31-53.28-9.24-59.69,22.05-4.95,24.21-2.33,76.92,15.35,72.6,6.23-1.52,16.91-10.8,26.96-23.21l10.04,11.4-62.22,58.45-14.34-94.38s0,100.38,6.67,116.39c11.34.67,72.37-47.02,72.37-47.02,0,0,36.02,44.35,38.68,74.7-29.68,14.01-87.71,45.69-95.04,55.69-6.73,9.18,97.37,58.76,114.12,68.18-11.69-9.51-65.09-60.51-65.09-60.51l75.7-28.01,32.68,47.36s-10.9,18.2-22.87,42.14l23.46-9.51c12.57-21.85,22.55-38.59,23.42-38.96Z"/>
    <path class="cls-2" d="M536.78,574.38c1.37,1.11,2.2,1.69,2.27,1.52.06-.14-.76-.67-2.27-1.52Z"/>
  </g>
</svg>