<?xml version="1.0" encoding="UTF-8"?>
<svg id="OBJECTS" xmlns="http://www.w3.org/2000/svg" version="1.1" viewBox="0 0 500 500">
  <!-- Generator: Adobe Illustrator 30.0.0, SVG Export Plug-In . SVG Version: 2.1.1 Build 123)  -->
  <defs>
    <style>
      .st0 {
        fill: #ec6b1f;
      }

      .st1 {
        fill: #462718;
      }

      .st2 {
        fill: #f28e1c;
      }
    </style>
  </defs>
  <g>
    <g>
      <polygon class="st0" points="138.52 241.32 153.05 246.49 151.01 261 136.74 263.49 131.51 250.89 138.52 241.32"/>
      <polygon class="st1" points="132.37 234.21 111.08 242.03 121.15 261.36 136.06 255.04 132.37 234.21"/>
      <path class="st2" d="M127.67,267.73c-.23.06-11.72-23.74-11.72-23.74l33.39-9.68-.42,23.7-21.26,9.73Z"/>
      <polygon class="st2" points="146.15 233.15 151.38 231.66 150.84 239.46 153.3 229.83 146.15 233.15"/>
      <polygon class="st2" points="152.43 236.81 151.4 240.61 154.05 239.52 152.43 236.81"/>
      <polygon class="st1" points="125.82 235.17 121.5 236.95 118.53 236.16 125.82 235.17"/>
      <polygon class="st2" points="116.7 236.53 120.1 237.33 116.97 238.97 116.7 236.53"/>
      <polygon class="st0" points="137.03 264.77 142.5 263.93 138.12 266.67 137.03 264.77"/>
      <polygon class="st0" points="140.99 266.72 143.85 263.96 143.86 265.85 140.99 266.72"/>
      <polygon class="st1" points="118.54 259.04 120.49 263.01 125.25 261.6 119.71 263.94 118.54 259.04"/>
      <polyline class="st0" points="127.79 268.96 135.75 266.16 129.89 270.17"/>
      <polygon class="st2" points="136.27 266.26 134.73 268.09 136.1 267.61 136.27 266.26"/>
    </g>
    <g>
      <path class="st1" d="M135.52,241.12s-.68-.44-1.31-.3c-.6,1.01-.4,2.83-.4,2.83,0,0,.27-.17.37-.15.15-1.33,1.34-2.37,1.34-2.37Z"/>
      <path class="st1" d="M136.3,241.58c-1.02.38-1.85,1.95-1.85,1.95,0,0,.3.05.38.14.84-.95,2.35-.95,2.35-.95,0,0-.3-.82-.87-1.15Z"/>
      <path class="st1" d="M135.2,243.84s.24.21.27.33c1.14-.36,2.46.48,2.46.48,0,0,.1-.88-.26-1.48-1.06-.24-2.47.67-2.47.67Z"/>
      <path class="st1" d="M141.48,259.74c.12-.06-2.23-8.1-3.89-9.69,1.46.17,3.12.13,3.12.13l-.82-4.6.17,3.92s-3.44-.76-4.38-.89c-.2-.17-.45-.6-.58-.84.65-1.17,1.03-2.52.34-3.21-1.22-1.21-2.68-.52-3,1.25-.25,1.37-.12,4.37.77,4.12.31-.09.85-.61,1.36-1.32l.51.65-3.13,3.32-.72-5.36s0,5.7.34,6.61c.57.04,3.64-2.67,3.64-2.67,0,0,1.81,2.52,1.95,4.24-1.49.8-4.41,2.59-4.78,3.16-.34.52,4.9,3.34,5.74,3.87-.59-.54-3.28-3.43-3.28-3.43l3.81-1.59,1.64,2.69s-.55,1.03-1.15,2.39l1.18-.54c.63-1.24,1.13-2.19,1.18-2.21Z"/>
      <path class="st1" d="M138.1,262.44c.07.06.11.1.11.09,0,0-.04-.04-.11-.09Z"/>
    </g>
  </g>
  <g>
    <g>
      <path class="st1" d="M176.02,258.24h-6.91l-1.02,3.53h-6.82l7.59-23.39h7.5l7.56,23.39h-6.85l-1.02-3.53ZM174.44,252.73l-1.87-6.51-1.87,6.51h3.75Z"/>
      <path class="st1" d="M207.62,238.39v5.81h-8.14v3.24h5.86v5.52h-5.86v8.82h-6.5v-23.39h14.64Z"/>
      <path class="st1" d="M227.86,261.78l-3.9-8.39h-.03v8.39h-6.5v-23.39h9.67c1.68,0,3.11.34,4.31,1.01,1.19.67,2.08,1.59,2.68,2.74.6,1.16.89,2.46.89,3.91,0,1.56-.39,2.95-1.16,4.16-.77,1.21-1.88,2.08-3.32,2.61l4.51,8.95h-7.15ZM223.94,248.5h2.58c.62,0,1.09-.16,1.41-.48.31-.32.47-.82.47-1.5,0-.62-.16-1.1-.48-1.45-.32-.35-.79-.53-1.39-.53h-2.58v3.96Z"/>
      <g>
        <path class="st1" d="M248.75,260.04c.72.58,1.53,1.04,2.42,1.35v-7.12h-5.04c.14,2.53,1.01,4.45,2.62,5.77ZM250.07,238.82c-1.2.55-2.15,1.36-2.84,2.43-.7,1.07-1.04,2.36-1.04,3.89-.02,1.52.28,2.76.91,3.73.63.97,1.37,1.71,2.24,2.22.53.31,1.14.61,1.83.93v-13.6c-.38.11-.75.24-1.1.41Z"/>
        <path class="st1" d="M246.54,241.25c-.7,1.07-1.04,2.36-1.04,3.89-.02,1.52.28,2.76.91,3.73.63.97,1.37,1.71,2.24,2.22.53.31,1.14.61,1.83.93v1.75h-5.06v.52h.01c.14,2.53,1.01,4.45,2.62,5.77.72.58,1.53,1.04,2.42,1.35v.38h-6.5v-23.38h6.5v.02c-.38.11-.75.24-1.1.41-1.2.55-2.15,1.36-2.84,2.43Z"/>
        <path class="st2" d="M261.86,251.14c-.63-.9-1.37-1.6-2.21-2.12-.85-.5-1.93-1.03-3.24-1.58-1.14-.49-1.96-.9-2.48-1.24-.52-.34-.78-.78-.78-1.31,0-.37.09-.66.27-.87.17-.21.4-.31.68-.31.39,0,.72.14,1,.43.27.28.42.76.44,1.42h6.99c-.08-2.4-.86-4.26-2.36-5.58-1.49-1.32-3.51-1.98-6.05-1.98-1.06,0-2.05.13-2.96.42-.38.11-.75.24-1.1.41-1.2.55-2.15,1.36-2.84,2.43-.7,1.07-1.04,2.36-1.04,3.89-.02,1.52.28,2.76.91,3.73.63.97,1.37,1.71,2.24,2.22.53.31,1.14.61,1.83.93.45.2.94.42,1.46.62,1.11.44,1.93.83,2.46,1.17.52.34.79.79.79,1.34,0,.4-.13.69-.37.87-.24.19-.54.28-.89.28-.96,0-1.49-.67-1.58-2.01h-6.92c.14,2.53,1.01,4.45,2.62,5.77.72.58,1.53,1.04,2.42,1.35,1.11.41,2.34.61,3.72.61,1.64,0,3.05-.32,4.25-.96,1.19-.64,2.1-1.53,2.73-2.66.62-1.13.93-2.41.93-3.85s-.31-2.5-.93-3.41Z"/>
      </g>
      <path class="st2" d="M288.98,238.39v5.81h-5.51v17.57h-6.5v-17.57h-5.45v-5.81h17.46Z"/>
      <path class="st2" d="M304.71,238.39v13.18c0,1.08.21,1.93.63,2.56.42.63,1.1.94,2.04.94s1.63-.31,2.08-.94c.45-.63.67-1.48.67-2.56v-13.18h6.47v13.18c0,2.22-.41,4.12-1.23,5.7-.82,1.58-1.94,2.76-3.37,3.55s-3.02,1.19-4.77,1.19-3.31-.4-4.67-1.19-2.42-1.97-3.18-3.53c-.76-1.56-1.14-3.47-1.14-5.71v-13.18h6.47Z"/>
      <path class="st2" d="M341.37,239.88c1.63.99,2.88,2.37,3.76,4.13.88,1.76,1.32,3.77,1.32,6.01s-.44,4.23-1.32,6.01c-.88,1.78-2.13,3.19-3.76,4.21-1.63,1.02-3.53,1.54-5.7,1.54h-8.64v-23.39h8.64c2.17,0,4.07.5,5.7,1.49ZM338.57,253.88c.86-.9,1.29-2.19,1.29-3.87s-.43-2.96-1.29-3.87c-.86-.9-2.02-1.35-3.49-1.35h-1.55v10.44h1.55c1.46,0,2.63-.45,3.49-1.35Z"/>
      <path class="st2" d="M362.91,238.39v23.39h-6.5v-23.39h6.5Z"/>
    </g>
    <g>
      <path class="st2" d="M381.06,259.95c2.19-.91,4-2.72,5.08-5.03h-9.46l4.39,5.03Z"/>
      <path class="st2" d="M382.16,240.61v10.69l4.47-4.94c-.81-2.49-2.42-4.53-4.47-5.75Z"/>
      <path class="st2" d="M369.23,245.66c-.53,1.33-.82,2.79-.82,4.34,0,1.13.16,2.22.45,3.25l6.64-7.59h-6.27Z"/>
      <path class="st2" d="M381.66,240.33c-1.17-.6-2.48-.93-3.85-.93-.97,0-1.91.17-2.8.48l6.65,7.52v-7.07Z"/>
      <path class="st2" d="M386.38,254.34c.53-1.33.82-2.79.82-4.34,0-1.06-.14-2.08-.39-3.04l-6.69,7.38h6.26Z"/>
      <path class="st2" d="M373.96,259.67c1.17.6,2.48.93,3.85.93.95,0,1.86-.16,2.72-.45l-6.57-7.53v7.06Z"/>
      <path class="st2" d="M373.45,259.39v-10.58l-4.41,5.03c.83,2.4,2.4,4.37,4.41,5.55Z"/>
      <path class="st2" d="M374.48,240.09c-2.16.92-3.94,2.72-5,5h9.42l-4.42-5Z"/>
      <path class="st2" d="M388.05,245.12c-.56-1.49-1.36-2.83-2.38-3.98-1.02-1.15-2.21-2.05-3.53-2.69-1.37-.65-2.83-.99-4.33-.99s-2.96.33-4.33.99c-1.32.63-2.51,1.54-3.53,2.69-1.02,1.15-1.82,2.49-2.38,3.98-.58,1.55-.87,3.19-.87,4.88s.29,3.33.87,4.88c.56,1.49,1.36,2.83,2.38,3.98s2.21,2.05,3.53,2.69c1.37.65,2.83.99,4.33.99s2.96-.33,4.33-.99c1.32-.63,2.51-1.54,3.53-2.69s1.82-2.49,2.38-3.98c.58-1.55.87-3.19.87-4.88s-.29-3.33-.87-4.88ZM377.81,261.4c-5.58,0-10.1-5.1-10.1-11.4s4.52-11.4,10.1-11.4,10.1,5.1,10.1,11.4-4.52,11.4-10.1,11.4Z"/>
    </g>
  </g>
</svg>