<?xml version="1.0" encoding="UTF-8"?>
<svg id="OBJECTS" xmlns="http://www.w3.org/2000/svg" viewBox="0 0 398.42 51.29">
  <defs>
    <style>
      .cls-1 {
        fill: #ec6b1f;
      }

      .cls-2 {
        fill: #462718;
      }

      .cls-3 {
        fill: #f28e1c;
      }
    </style>
  </defs>
  <g>
    <g>
      <polygon class="cls-1" points="39.35 14.6 60.19 21.18 57.26 39.63 36.79 42.79 29.3 26.78 39.35 14.6"/>
      <polygon class="cls-2" points="30.54 5.56 0 15.51 14.44 40.09 35.82 32.06 30.54 5.56"/>
      <path class="cls-3" d="M23.79,48.19c-.33.07-16.8-30.18-16.8-30.18L54.87,5.69l-.6,30.13-30.48,12.36Z"/>
      <polygon class="cls-3" points="50.29 4.22 57.79 2.33 57.01 12.24 60.55 0 50.29 4.22"/>
      <polygon class="cls-3" points="59.29 8.88 57.83 13.7 61.62 12.32 59.29 8.88"/>
      <polygon class="cls-2" points="21.13 6.79 14.94 9.05 10.68 8.05 21.13 6.79"/>
      <polygon class="cls-3" points="8.06 8.52 12.93 9.54 8.45 11.62 8.06 8.52"/>
      <polygon class="cls-1" points="37.21 44.42 45.05 43.35 38.78 46.84 37.21 44.42"/>
      <polygon class="cls-1" points="42.9 46.9 46.99 43.4 47.01 45.8 42.9 46.9"/>
      <polygon class="cls-2" points="10.69 37.14 13.49 42.18 20.32 40.39 12.38 43.37 10.69 37.14"/>
      <polyline class="cls-1" points="23.96 49.75 35.38 46.19 26.97 51.29"/>
      <polygon class="cls-3" points="36.12 46.32 33.91 48.65 35.87 48.03 36.12 46.32"/>
    </g>
    <g>
      <path class="cls-2" d="M35.04,14.35s-.97-.56-1.88-.39c-.87,1.28-.58,3.59-.58,3.59,0,0,.39-.21.53-.19.21-1.69,1.93-3.02,1.93-3.02Z"/>
      <path class="cls-2" d="M36.16,14.94c-1.47.48-2.66,2.48-2.66,2.48,0,0,.44.07.54.18,1.21-1.2,3.37-1.2,3.37-1.2,0,0-.42-1.04-1.25-1.46Z"/>
      <path class="cls-2" d="M34.58,17.82s.35.27.38.42c1.64-.45,3.53.61,3.53.61,0,0,.14-1.11-.37-1.89-1.51-.31-3.54.85-3.54.85Z"/>
      <path class="cls-2" d="M43.6,38.03c.17-.07-3.2-10.3-5.58-12.32,2.09.22,4.48.17,4.48.17l-1.18-5.85.24,4.98s-4.93-.96-6.28-1.13c-.29-.22-.64-.76-.83-1.06.94-1.49,1.48-3.2.48-4.08-1.75-1.54-3.85-.67-4.31,1.59-.36,1.75-.17,5.55,1.11,5.24.45-.11,1.22-.78,1.95-1.67l.72.82-4.49,4.22-1.03-6.81s0,7.24.48,8.4c.82.05,5.22-3.39,5.22-3.39,0,0,2.6,3.2,2.79,5.39-2.14,1.01-6.33,3.3-6.86,4.02-.49.66,7.03,4.24,8.24,4.92-.84-.69-4.7-4.37-4.7-4.37l5.46-2.02,2.36,3.42s-.79,1.31-1.65,3.04l1.69-.69c.91-1.58,1.63-2.79,1.69-2.81Z"/>
      <path class="cls-2" d="M38.74,41.45c.1.08.16.12.16.11,0,0-.05-.05-.16-.11Z"/>
    </g>
  </g>
  <g>
    <g>
      <path class="cls-2" d="M93.12,36.12h-9.91l-1.47,4.49h-9.79l10.88-29.74h10.75l10.84,29.74h-9.83l-1.47-4.49ZM90.85,29.11l-2.69-8.27-2.69,8.27h5.38Z"/>
      <path class="cls-2" d="M138.44,10.88v7.39h-11.68v4.12h8.4v7.01h-8.4v11.21h-9.32V10.88h21Z"/>
      <path class="cls-2" d="M167.46,40.62l-5.59-10.67h-.04v10.67h-9.32V10.88h13.86c2.41,0,4.47.43,6.17,1.28,1.71.85,2.99,2.02,3.84,3.49.85,1.47,1.28,3.13,1.28,4.98,0,1.99-.55,3.75-1.66,5.29-1.11,1.54-2.7,2.65-4.77,3.32l6.47,11.38h-10.25ZM161.83,23.73h3.7c.9,0,1.57-.2,2.02-.61.45-.41.67-1.04.67-1.91,0-.78-.23-1.4-.69-1.85-.46-.45-1.13-.67-2-.67h-3.7v5.04Z"/>
      <g>
        <path class="cls-2" d="M197.42,38.41c1.03.74,2.19,1.32,3.47,1.72v-9.05h-7.23c.2,3.22,1.45,5.66,3.76,7.33ZM199.31,11.42c-1.72.7-3.08,1.73-4.07,3.09-1,1.36-1.49,3-1.49,4.94-.03,1.93.4,3.51,1.3,4.74.9,1.23,1.97,2.17,3.21,2.82.76.39,1.63.78,2.63,1.18V10.9c-.55.14-1.07.31-1.58.52Z"/>
        <path class="cls-2" d="M194.24,14.51c-1,1.36-1.49,3-1.49,4.94-.03,1.93.4,3.51,1.3,4.74.9,1.23,1.97,2.17,3.21,2.82.76.39,1.63.78,2.63,1.18v2.23h-7.25v.66h.02c.2,3.22,1.45,5.66,3.76,7.33,1.03.74,2.19,1.32,3.47,1.72v.48h-9.32V10.88h9.32v.02c-.55.14-1.07.31-1.58.52-1.72.7-3.08,1.73-4.07,3.09Z"/>
        <path class="cls-3" d="M216.22,27.09c-.9-1.15-1.96-2.04-3.17-2.69-1.22-.64-2.77-1.31-4.64-2.01-1.63-.62-2.81-1.14-3.55-1.58-.75-.43-1.12-.99-1.12-1.66,0-.47.13-.84.38-1.11.25-.27.58-.4.97-.4.56,0,1.03.18,1.43.55.39.36.6.96.63,1.8h10.03c-.11-3.05-1.24-5.42-3.38-7.1-2.14-1.68-5.03-2.52-8.67-2.52-1.52,0-2.94.17-4.24.53-.55.14-1.07.31-1.58.52-1.72.7-3.08,1.73-4.07,3.09-1,1.36-1.49,3-1.49,4.94-.03,1.93.4,3.51,1.3,4.74.9,1.23,1.97,2.17,3.21,2.82.76.39,1.63.78,2.63,1.18.65.26,1.35.53,2.1.79,1.59.56,2.77,1.06,3.53,1.49.75.43,1.13,1,1.13,1.7,0,.51-.18.88-.53,1.11-.35.24-.77.36-1.28.36-1.37,0-2.13-.85-2.26-2.56h-9.92c.2,3.22,1.45,5.66,3.76,7.33,1.03.74,2.19,1.32,3.47,1.72,1.59.52,3.36.78,5.33.78,2.35,0,4.38-.41,6.09-1.22,1.71-.81,3.01-1.94,3.91-3.38.89-1.44,1.34-3.07,1.34-4.89s-.45-3.18-1.34-4.33Z"/>
      </g>
      <path class="cls-3" d="M255.11,10.88v7.39h-7.9v22.34h-9.32v-22.34h-7.81v-7.39h25.03Z"/>
      <path class="cls-3" d="M277.66,10.88v16.76c0,1.37.3,2.46.9,3.25.6.8,1.58,1.2,2.92,1.2s2.34-.4,2.98-1.2c.64-.8.97-1.88.97-3.25V10.88h9.28v16.76c0,2.83-.59,5.24-1.76,7.24-1.18,2-2.79,3.51-4.83,4.52s-4.33,1.51-6.85,1.51-4.75-.5-6.7-1.51-3.46-2.51-4.56-4.49c-1.09-1.99-1.64-4.41-1.64-7.27V10.88h9.28Z"/>
      <path class="cls-3" d="M330.23,12.77c2.34,1.26,4.14,3.01,5.4,5.25,1.26,2.24,1.89,4.79,1.89,7.64s-.63,5.38-1.89,7.64c-1.26,2.27-3.06,4.05-5.4,5.35-2.34,1.3-5.06,1.95-8.17,1.95h-12.39V10.88h12.39c3.11,0,5.83.63,8.17,1.89ZM326.22,30.58c1.23-1.15,1.85-2.79,1.85-4.91s-.62-3.77-1.85-4.91c-1.23-1.15-2.9-1.72-5-1.72h-2.23v13.27h2.23c2.1,0,3.77-.57,5-1.72Z"/>
      <path class="cls-3" d="M361.12,10.88v29.74h-9.32V10.88h9.32Z"/>
    </g>
    <g>
      <path class="cls-3" d="M387.15,38.29c3.15-1.16,5.74-3.46,7.28-6.4h-13.57l6.29,6.4Z"/>
      <path class="cls-3" d="M388.73,13.7v13.59l6.41-6.28c-1.16-3.16-3.46-5.77-6.41-7.31Z"/>
      <path class="cls-3" d="M370.19,20.12c-.76,1.68-1.18,3.55-1.18,5.52,0,1.44.23,2.83.64,4.13l9.53-9.65h-8.99Z"/>
      <path class="cls-3" d="M388,13.35c-1.68-.76-3.55-1.18-5.52-1.18-1.4,0-2.75.21-4.01.61l9.53,9.55v-8.98Z"/>
      <path class="cls-3" d="M394.78,31.16c.76-1.68,1.18-3.55,1.18-5.52,0-1.34-.2-2.64-.56-3.87l-9.59,9.39h8.97Z"/>
      <path class="cls-3" d="M376.96,37.94c1.68.76,3.55,1.18,5.52,1.18,1.36,0,2.67-.2,3.9-.57l-9.42-9.58v8.97Z"/>
      <path class="cls-3" d="M376.24,37.59v-13.45l-6.32,6.4c1.19,3.05,3.45,5.55,6.32,7.06Z"/>
      <path class="cls-3" d="M377.71,13.04c-3.1,1.17-5.65,3.45-7.17,6.36h13.51l-6.34-6.36Z"/>
      <path class="cls-3" d="M397.17,19.44c-.8-1.9-1.95-3.6-3.41-5.07-1.46-1.46-3.17-2.61-5.07-3.41-1.97-.83-4.05-1.25-6.2-1.25s-4.24.42-6.2,1.25c-1.9.8-3.6,1.95-5.07,3.41-1.46,1.46-2.61,3.17-3.41,5.07-.83,1.97-1.25,4.05-1.25,6.2s.42,4.24,1.25,6.2c.8,1.9,1.95,3.6,3.41,5.07s3.17,2.61,5.07,3.41c1.97.83,4.05,1.25,6.2,1.25s4.24-.42,6.2-1.25c1.9-.8,3.6-1.95,5.07-3.41s2.61-3.17,3.41-5.07c.83-1.97,1.25-4.05,1.25-6.2s-.42-4.24-1.25-6.2ZM382.48,40.13c-8,0-14.49-6.49-14.49-14.49s6.49-14.49,14.49-14.49,14.49,6.49,14.49,14.49-6.49,14.49-14.49,14.49Z"/>
    </g>
  </g>
</svg>